<?xml version="1.0" encoding="utf-8"?>
<!-- Generator: Adobe Illustrator 22.0.1, SVG Export Plug-In . SVG Version: 6.00 Build 0)  -->
<svg version="1.1" xmlns="http://www.w3.org/2000/svg" xmlns:xlink="http://www.w3.org/1999/xlink" x="0px" y="0px"
	 viewBox="0 0 792 576" style="enable-background:new 0 0 792 576;" xml:space="preserve">
<style type="text/css">
	.st0{fill:#F2706E;}
	.st1{fill:#10A698;}
</style>
<g id="Base">
	<g>
		<g>
			<g>
				<path class="st0" d="M237.8,166.2c11.1-28.4,19.3-57.8,24.6-87.8c1-5.6-1.5-11.3-7.3-12.9c-5.1-1.4-11.9,1.7-12.9,7.3
					c-5.3,30-13.5,59.4-24.6,87.8c-2.1,5.3,2.3,11.5,7.3,12.9C230.8,175.1,235.7,171.5,237.8,166.2L237.8,166.2z"/>
			</g>
		</g>
		<g>
			<g>
				<path class="st0" d="M201.2,307.8c0.6-96.8,48.7-196.6,139.1-239c42.1-19.7,91.6-26,136.9-14.8c43.2,10.7,79.8,37.6,103.1,75.5
					c25.1,40.9,33.4,91.3,16.6,136.6c-2,5.3,2.2,11.5,7.3,12.9c5.9,1.6,10.9-2,12.9-7.3c16.6-44.9,10.6-95.2-10.4-137.7
					c-21.5-43.6-58.9-77.7-104.6-94.4c-48.4-17.7-103.6-15.4-151.7,2.3c-49.8,18.3-91.2,52.5-120.5,96.7
					c-29.4,44.3-45.6,96.8-49.1,149.6c-0.4,6.5-0.7,13-0.7,19.5C180.1,321.3,201.1,321.3,201.2,307.8L201.2,307.8z"/>
			</g>
		</g>
	</g>
	<g>
		<g>
			<path class="st1" d="M182.5,335c-17.5,59.9-33.4,139.6,24,183.7c26.8,20.6,61.7,26.6,94.5,28.8c38.2,2.5,76.9,0.6,114.4-7.2
				c68.2-14.2,132.4-51.2,170-111.1c8.6-13.8,15.6-28.6,20.7-44.1c5.1-15.7,8.8-33,6.8-49.6c-2.2-17.8-11.2-33.6-27.5-42
				c-15.4-7.9-32.9-9.2-49.8-10.8c-38-3.7-78.7-5.8-113.9,11.7c-28.4,14.1-51.7,43.7-53,76.1c-0.3,7.8,0.9,15.8,3.4,23.2
				c4.3,12.7,24.6,7.3,20.2-5.6c-8.5-25.4,5.9-51.8,26.4-67.3c26.8-20.3,63.1-21,95.2-18.9c15.7,1,32,1.8,47.4,5.3
				c12.9,2.9,24.9,8.9,29.1,22.4c4.1,13.5,1.5,28-2.1,41.3c-3.8,14-9.3,27.4-16.5,40c-30.6,53.9-85.1,89.1-144.1,104.9
				c-33.7,9-68.5,12.2-103.3,11.6c-29.8-0.5-62-2.3-89.2-15.6c-12.4-6-23.8-14.4-31.8-25.7c-8.1-11.4-12.8-24.3-15-38
				c-4.7-28.4,1.2-58.2,8.2-85.6c1.9-7.3,3.9-14.6,6.1-21.9C206.6,327.6,186.3,322.1,182.5,335L182.5,335z"/>
		</g>
	</g>
</g>
<g id="Face">
	<g>
		<g>
			<path d="M430.6,208c-9.9,2.3-20,2.3-30,0.2c-7.5-1.6-10.7,9.9-3.2,11.6c12.1,2.6,24.3,2.6,36.3-0.2
				C441.3,217.9,438.1,206.3,430.6,208L430.6,208z"/>
		</g>
	</g>
	<g>
		<g>
			<path d="M479.9,160.3c13.8-0.4,26.9,3,38.6,10.3c6.6,4.1,12.6-6.3,6.1-10.4c-13.4-8.3-28.9-12.4-44.7-11.9
				C472.2,148.6,472.2,160.6,479.9,160.3L479.9,160.3z"/>
		</g>
	</g>
	<g>
		<g>
			<path d="M351.5,148.3c-15.8-0.5-31.3,3.6-44.7,11.9c-6.6,4.1-0.5,14.4,6.1,10.4c11.7-7.3,24.8-10.7,38.6-10.3
				C359.3,160.6,359.3,148.6,351.5,148.3L351.5,148.3z"/>
		</g>
	</g>
</g>
</svg>
